<svg xmlns="http://www.w3.org/2000/svg" viewBox="0 0 256 256">
<defs>
<linearGradient id="bg" x1="0" y1="0" x2="0" y2="1"><stop offset="0" stop-color="#0b1026"/><stop offset="1" stop-color="#05070f"/></linearGradient>
<filter id="glow" x="-40%" y="-40%" width="180%" height="180%"><feGaussianBlur stdDeviation="3.2" result="b"/><feMerge><feMergeNode in="b"/><feMergeNode in="SourceGraphic"/></feMerge></filter>
</defs>
<rect x="4" y="4" width="248" height="248" rx="28" fill="url(#bg)" stroke="#f0f" stroke-width="5"/>
<ellipse cx="128" cy="222" rx="70" ry="14" fill="#f0f" opacity="0.22" filter="url(#glow)"/>
<ellipse cx="128" cy="128" rx="44" ry="48" fill="#f0c8a0"/>
<path d="M82 128 Q80 76 128 74 Q176 76 174 128 L164 128 Q164 92 128 90 Q92 92 92 128 Z" fill="#232742"/>
<path d="M96 84 Q128 74 160 84" stroke="#f0f" stroke-width="5" fill="none" opacity="0.9"/>
<circle cx="170" cy="140" r="6" fill="#f0f" filter="url(#glow)"/>
<rect x="90" y="118" width="76" height="22" rx="11" fill="#04060d" stroke="#f0f" stroke-width="3"/>
<rect x="98" y="124" width="60" height="10" rx="5" fill="#f0f" filter="url(#glow)"/>
<path d="M52 256 Q56 196 96 188 L160 188 Q200 196 204 256 Z" fill="#141a33"/>
<path d="M96 188 L112 256 M160 188 L144 256" stroke="#f0f" stroke-width="4" opacity="0.7"/>
<path d="M104 196 h48 l-6 60 h-36 Z" fill="#1f2745"/>
<circle cx="128" cy="216" r="5" fill="#f0f" filter="url(#glow)"/>
<path d="M84 178 Q128 196 172 178 L168 192 Q128 208 88 192 Z" fill="#f0f" opacity="0.85"/>
<text x="128" y="52" text-anchor="middle" font-family="sans-serif" font-size="21" font-weight="bold" fill="#f4f6ff" letter-spacing="3">MIRA</text>
<text x="128" y="70" text-anchor="middle" font-family="sans-serif" font-size="13" fill="#f0f">มิร่า · หญิง · วิศวกร</text>
</svg>
