# RexMale — male low-poly prototype
mtllib RexMale.mtl
o RexMale
v -0.18000 -0.28000 0.00000
v 0.18000 -0.28000 0.00000
v 0.18000 0.28000 0.00000
v -0.18000 0.28000 0.00000
v -0.18000 -0.28000 0.24000
v 0.18000 -0.28000 0.24000
v 0.18000 0.28000 0.24000
v -0.18000 0.28000 0.24000
v -0.18000 -0.24000 0.24000
v 0.18000 -0.24000 0.24000
v 0.18000 0.24000 0.24000
v -0.18000 0.24000 0.24000
v -0.18000 -0.24000 0.80000
v 0.18000 -0.24000 0.80000
v 0.18000 0.24000 0.80000
v -0.18000 0.24000 0.80000
v -0.35360 -0.22000 0.70000
v 0.35360 -0.22000 0.70000
v 0.35360 0.22000 0.70000
v -0.35360 0.22000 0.70000
v -0.35360 -0.22000 1.54000
v 0.35360 -0.22000 1.54000
v 0.35360 0.22000 1.54000
v -0.35360 0.22000 1.54000
v 0.00000 0.00000 2.11120
v 0.00000 0.00000 2.11120
v 0.00000 0.00000 2.11120
v 0.00000 0.00000 2.11120
v 0.00000 0.00000 2.11120
v 0.00000 0.00000 2.11120
v 0.00000 0.00000 2.11120
v 0.00000 0.00000 2.11120
v 0.00000 0.00000 2.11120
v 0.00000 0.00000 2.11120
v 0.11440 0.00000 2.07637
v 0.09255 0.06113 2.07637
v 0.03535 0.09891 2.07637
v -0.03535 0.09891 2.07637
v -0.09255 0.06113 2.07637
v -0.11440 0.00000 2.07637
v -0.09255 -0.06113 2.07637
v -0.03535 -0.09891 2.07637
v 0.03535 -0.09891 2.07637
v 0.09255 -0.06113 2.07637
v 0.19815 0.00000 1.98120
v 0.16030 0.10588 1.98120
v 0.06123 0.17132 1.98120
v -0.06123 0.17132 1.98120
v -0.16030 0.10588 1.98120
v -0.19815 0.00000 1.98120
v -0.16030 -0.10588 1.98120
v -0.06123 -0.17132 1.98120
v 0.06123 -0.17132 1.98120
v 0.16030 -0.10588 1.98120
v 0.22880 0.00000 1.85120
v 0.18510 0.12226 1.85120
v 0.07070 0.19782 1.85120
v -0.07070 0.19782 1.85120
v -0.18510 0.12226 1.85120
v -0.22880 0.00000 1.85120
v -0.18510 -0.12226 1.85120
v -0.07070 -0.19782 1.85120
v 0.07070 -0.19782 1.85120
v 0.18510 -0.12226 1.85120
v 0.19815 0.00000 1.72120
v 0.16030 0.10588 1.72120
v 0.06123 0.17132 1.72120
v -0.06123 0.17132 1.72120
v -0.16030 0.10588 1.72120
v -0.19815 0.00000 1.72120
v -0.16030 -0.10588 1.72120
v -0.06123 -0.17132 1.72120
v 0.06123 -0.17132 1.72120
v 0.16030 -0.10588 1.72120
v 0.11440 0.00000 1.62603
v 0.09255 0.06113 1.62603
v 0.03535 0.09891 1.62603
v -0.03535 0.09891 1.62603
v -0.09255 0.06113 1.62603
v -0.11440 0.00000 1.62603
v -0.09255 -0.06113 1.62603
v -0.03535 -0.09891 1.62603
v 0.03535 -0.09891 1.62603
v 0.09255 -0.06113 1.62603
v 0.00000 0.00000 1.59120
v 0.00000 0.00000 1.59120
v 0.00000 0.00000 1.59120
v -0.00000 0.00000 1.59120
v -0.00000 0.00000 1.59120
v -0.00000 0.00000 1.59120
v -0.00000 -0.00000 1.59120
v -0.00000 -0.00000 1.59120
v 0.00000 -0.00000 1.59120
v 0.00000 -0.00000 1.59120
v -0.61920 -0.16000 0.80080
v -0.37920 -0.16000 0.80080
v -0.37920 0.16000 0.80080
v -0.61920 0.16000 0.80080
v -0.61920 -0.16000 1.59120
v -0.37920 -0.16000 1.59120
v -0.37920 0.16000 1.59120
v -0.61920 0.16000 1.59120
v 0.37920 -0.16000 0.80080
v 0.61920 -0.16000 0.80080
v 0.61920 0.16000 0.80080
v 0.37920 0.16000 0.80080
v 0.37920 -0.16000 1.59120
v 0.61920 -0.16000 1.59120
v 0.61920 0.16000 1.59120
v 0.37920 0.16000 1.59120
v -0.16640 -0.27500 1.18560
v 0.16640 -0.27500 1.18560
v 0.16640 -0.20500 1.18560
v -0.16640 -0.20500 1.18560
v -0.16640 -0.27500 1.35200
v 0.16640 -0.27500 1.35200
v 0.16640 -0.20500 1.35200
v -0.16640 -0.20500 1.35200
usemtl boots
f 1 2 3 4
f 5 8 7 6
f 1 5 6 2
f 2 6 7 3
f 3 7 8 4
f 5 1 4 8
usemtl pants
f 9 10 11 12
f 13 16 15 14
f 9 13 14 10
f 10 14 15 11
f 11 15 16 12
f 13 9 12 16
usemtl jacket_magenta
f 17 18 19 20
f 21 24 23 22
f 17 21 22 18
f 18 22 23 19
f 19 23 24 20
f 21 17 20 24
usemtl skin
f 25 26 36
f 25 36 35
f 26 27 37
f 26 37 36
f 27 28 38
f 27 38 37
f 28 29 39
f 28 39 38
f 29 30 40
f 29 40 39
f 30 31 41
f 30 41 40
f 31 32 42
f 31 42 41
f 32 33 43
f 32 43 42
f 33 34 44
f 33 44 43
f 34 25 35
f 34 35 44
f 35 36 46
f 35 46 45
f 36 37 47
f 36 47 46
f 37 38 48
f 37 48 47
f 38 39 49
f 38 49 48
f 39 40 50
f 39 50 49
f 40 41 51
f 40 51 50
f 41 42 52
f 41 52 51
f 42 43 53
f 42 53 52
f 43 44 54
f 43 54 53
f 44 35 45
f 44 45 54
f 45 46 56
f 45 56 55
f 46 47 57
f 46 57 56
f 47 48 58
f 47 58 57
f 48 49 59
f 48 59 58
f 49 50 60
f 49 60 59
f 50 51 61
f 50 61 60
f 51 52 62
f 51 62 61
f 52 53 63
f 52 63 62
f 53 54 64
f 53 64 63
f 54 45 55
f 54 55 64
f 55 56 66
f 55 66 65
f 56 57 67
f 56 67 66
f 57 58 68
f 57 68 67
f 58 59 69
f 58 69 68
f 59 60 70
f 59 70 69
f 60 61 71
f 60 71 70
f 61 62 72
f 61 72 71
f 62 63 73
f 62 73 72
f 63 64 74
f 63 74 73
f 64 55 65
f 64 65 74
f 65 66 76
f 65 76 75
f 66 67 77
f 66 77 76
f 67 68 78
f 67 78 77
f 68 69 79
f 68 79 78
f 69 70 80
f 69 80 79
f 70 71 81
f 70 81 80
f 71 72 82
f 71 82 81
f 72 73 83
f 72 83 82
f 73 74 84
f 73 84 83
f 74 65 75
f 74 75 84
f 75 76 86
f 75 86 85
f 76 77 87
f 76 87 86
f 77 78 88
f 77 88 87
f 78 79 89
f 78 89 88
f 79 80 90
f 79 90 89
f 80 81 91
f 80 91 90
f 81 82 92
f 81 92 91
f 82 83 93
f 82 93 92
f 83 84 94
f 83 94 93
f 84 75 85
f 84 85 94
usemtl jacket_magenta
f 95 96 97 98
f 99 102 101 100
f 95 99 100 96
f 96 100 101 97
f 97 101 102 98
f 99 95 98 102
f 103 104 105 106
f 107 110 109 108
f 103 107 108 104
f 104 108 109 105
f 105 109 110 106
f 107 103 106 110
usemtl accent_cyan
f 111 112 113 114
f 115 118 117 116
f 111 115 116 112
f 112 116 117 113
f 113 117 118 114
f 115 111 114 118
